<?xml version="1.0" encoding="UTF-8"?>
<svg id="Layer_1" xmlns="http://www.w3.org/2000/svg" xmlns:xlink="http://www.w3.org/1999/xlink" version="1.1" viewBox="0 0 201 55">
  <!-- Generator: Adobe Illustrator 29.0.0, SVG Export Plug-In . SVG Version: 2.1.0 Build 186)  -->
  <defs>
    <style>
      .st0 {
        fill: #db001b;
      }

      .st1 {
        fill: #fd3053;
      }

      .st2 {
        fill: url(#Degradado_sin_nombre_101);
      }

      .st3 {
        fill: url(#Degradado_sin_nombre_102);
      }

      .st4 {
        fill: url(#Degradado_sin_nombre_10);
      }
    </style>
    <linearGradient id="Degradado_sin_nombre_10" data-name="Degradado sin nombre 10" x1="50.3" y1="49.1" x2="57.2" y2="49.1" gradientUnits="userSpaceOnUse">
      <stop offset="0" stop-color="#db001b"/>
      <stop offset="1" stop-color="#fd3053"/>
    </linearGradient>
    <linearGradient id="Degradado_sin_nombre_101" data-name="Degradado sin nombre 10" x1="20.8" y1="47" x2="26.9" y2="47" xlink:href="#Degradado_sin_nombre_10"/>
    <linearGradient id="Degradado_sin_nombre_102" data-name="Degradado sin nombre 10" x1="1.7" y1="27.7" x2="77.8" y2="27.7" xlink:href="#Degradado_sin_nombre_10"/>
  </defs>
  <g>
    <path class="st4" d="M56.7,46.4c-.5-.4-1.4-.4-1.8.2-1.9,2.4-3.7,3-3.8,3-.7.2-1,.9-.8,1.6.2.5.7.9,1.2.9s.3,0,.4,0c.2,0,2.5-.9,4.9-3.9.4-.5.4-1.4-.2-1.8Z"/>
    <path class="st2" d="M26.3,47.5c-1.1-.9-2.3-1.8-3.3-2.9-.5-.5-1.3-.5-1.8,0-.5.5-.5,1.3,0,1.8,1.2,1.2,2.4,2.2,3.7,3.2.2.2.5.3.8.3.4,0,.9-.2,1.1-.7.3-.6,0-1.3-.4-1.7Z"/>
    <path class="st3" d="M75,13c-.2-.6-.9-1-1.5-.8-.8.2-1.2,1-.9,1.7,1.1,2.7,1.8,5.3,2.1,7.8.1.7-.4,1.3-1.1,1.4-.2,0-.5,0-.7,0-.6,0-1.1-.4-1.1-1-.6-6-3.1-12.6-8.5-19.3-.4-.6-1.2-.6-1.8-.2-.6.4-.6,1.2-.2,1.8,7.3,9.1,8.8,17.7,7.9,25.1-.1.8-.8,1.3-1.6,1-.2,0-.3-.1-.5-.2-.6-.3-.9-.9-.9-1.5.3-5.4-.9-11.9-5.1-19.3-.3-.6-1.1-.8-1.7-.5-.6.3-.8,1.1-.5,1.7,1.4,2.5,2.5,5,3.2,7.3.2.6,0,1.2-.6,1.5-.3.2-.7.3-1,.3-.5,0-1-.4-1.2-.8-3.2-7.7-10.8-13.2-19.7-13.2s-16.4,5.4-19.7,13c-.3.7-1.1,1.1-1.9.8h0c-.6-.2-1-.9-.7-1.5.9-2.3,2.1-4.5,3.6-6.5.4-.6.3-1.4-.3-1.8-.6-.4-1.4-.3-1.8.3-3.3,4.5-5.3,9.5-5.7,14.6,0,0,0,0,0,0-.2.7-.2,1.2,0,1.5,0,.9,0,1.9,0,2.8,0,.5-.3,1-.8,1.1-.7.1-1.3,0-1.9,0-.4,0-.8-.4-.8-.9-.1-.9-.2-1.8-.2-2.7-.1-7.7,3.2-14.9,9.8-21.6.5-.5.5-1.3,0-1.8-.5-.5-1.3-.5-1.8,0-6,6-9.5,12.5-10.3,19.4,0,.5-.5.9-1,.8-.2,0-.4,0-.6,0-.6,0-1.1-.7-1-1.3.4-2.6,1-5.3,2.2-8,.3-.7-.1-1.5-.9-1.7-.6-.2-1.3.2-1.5.8-6.1,14.9-.2,27.7,0,28.2.2.5.7.7,1.2.7s.4,0,.5-.1c.6-.3.9-1.1.6-1.7,0,0-1.7-3.7-2.3-9.2,0-.8.5-1.4,1.2-1.3h0c.8,0,1.5.6,1.6,1.4,2.1,12.5,11.4,21.4,11.9,21.8.2.2.6.3.9.3s.7-.1.9-.4c.5-.5.5-1.3,0-1.8,0,0-4.8-4.6-8.2-11.4-.4-.7,0-1.6.7-1.9,0,0,.1,0,.2,0,.7-.2,1.5,0,1.8.8.8,1.8,1.9,3.6,3.1,5.3.3.3.6.5,1,.5s.5,0,.8-.3c.6-.4.7-1.2.2-1.8-3.4-4.5-5-9.8-4.9-15.2,0-.6.6-1.1,1.2-1,.6,0,1.1.3,1.5.6,0,.3,0,.5,0,.8,0,11.8,9.6,21.3,21.3,21.3s21.3-9.6,21.3-21.3,0-.4,0-.5c0-.5.3-.9.8-1,.7-.1,1.4,0,1.8.7,0,.1.1.3.2.5.2,10.6-5.8,17-6.2,17.4-.5.5-.5,1.3,0,1.8.2.3.6.4.9.4s.7-.1.9-.4c0,0,2.6-2.7,4.6-7.5.2-.4.5-.7,1-.7.3,0,.6,0,1,0,.5.1.8.7.6,1.2-3.1,7-7.6,11.5-8,11.9-.5.5-.5,1.3,0,1.8.3.3.6.4.9.4s.6-.1.9-.4c.1-.1,5.1-5.1,8.5-12.9.4-.4.8-1.6,1.2-3.1,0,0,0,0,0,0,.6-1.9,1.2-3.9,1.5-6,.1-.7.6-1.2,1.3-1.3.3,0,.7,0,1.1-.1.6,0,1.1.5,1,1.1-.6,5.8-2.3,9.6-2.3,9.7-.3.6,0,1.4.6,1.7.2,0,.4.1.5.1.5,0,.9-.3,1.2-.7.3-.5,6.1-13.3,0-28.2ZM41.2,18c.5-2.7,2.6-4.6,4.8-4.2,2.1.4,3.4,2.9,2.9,5.6s-2.6,4.6-4.8,4.2c-2.1-.4-3.4-2.9-2.9-5.6ZM35.1,13.8c2.1-.3,4.2,1.6,4.6,4.4.4,2.7-1,5.2-3.1,5.5-2.1.3-4.2-1.6-4.6-4.4-.4-2.7,1-5.2,3.1-5.5ZM25.7,26.9c-1-2.2-.2-4.7,1.7-5.6,1.9-.8,4.3.3,5.2,2.5s.2,4.7-1.7,5.6c-1.9.8-4.3-.3-5.2-2.5ZM40.2,39.5c-6.2,0-9.3,2-9.3-3s4.2-11.1,9.3-11.1,9.3,6.1,9.3,11.1-4.2,3-9.3,3ZM54.8,27.2c-1.2,2.1-3.6,3.1-5.3,2.1s-2.1-3.5-.9-5.6c1.2-2.1,3.6-3.1,5.3-2.1s2.1,3.5.9,5.6Z"/>
  </g>
  <g>
    <path class="st0" d="M101.5,26.1c0,4-2.8,6.5-6.2,6.5s-1.3,0-1.9-.3c-.8-.3-1.6.3-1.6,1.2v2.2c0,.7-.6,1.2-1.2,1.2h-1.9c-.7,0-1.2-.6-1.2-1.2v-14.6c0-.7.6-1.2,1.2-1.2h2.6c.2,0,.4.2.4.4h0c0,.3.4.5.6.3.8-.6,1.8-.9,3.1-.9,3.4,0,6.2,2.5,6.2,6.5ZM97.1,26.1c0-1.9-1.2-3-2.7-3s-2.7,1.1-2.7,3,1.2,3,2.7,3,2.7-1.1,2.7-3Z"/>
    <path class="st0" d="M115.8,27.2h-7.3c-.6,0-.9.8-.5,1.2s1.4.8,2.4.8,1.7-.2,2.4-.7.7-.2.9,0l1.4,1.5c.3.3.3.7,0,1-1.2,1-2.8,1.5-4.9,1.5-4.5,0-7.4-2.8-7.4-6.5s3-6.5,6.9-6.5,6.8,2.4,6.8,6.5,0,.3,0,.4c0,.4-.3.6-.7.6ZM108.2,24.9h3.1c.6,0,.9-.6.6-1.1-.5-.7-1.2-1.1-2.2-1.1s-1.7.4-2.1,1.1,0,1.1.6,1.1Z"/>
    <path class="st0" d="M127,31.1c.2.5,0,1-.6,1.2s-1.4.3-2.2.3c-3.2,0-5.1-1.6-5.1-4.8v-3.3c0-.5-.4-.9-.9-.9h0c-.5,0-.9-.4-.9-.9v-1.5c0-.5.4-.9.9-.9h0c.5,0,.9-.4.9-.9v-1.4c0-.5.4-.9.9-.9h2.6c.5,0,.9.4.9.9v1.4c0,.5.4.9.9.9h1c.5,0,.9.4.9.9v1.5c0,.5-.4.9-.9.9h-1c-.5,0-.9.4-.9.9v3.3c0,.9.5,1.4,1.3,1.4s.4,0,.6,0c.5-.1.9.1,1.1.6l.5,1.4Z"/>
    <path class="st1" d="M130.2,15.1h1.9c.7,0,1.2.6,1.2,1.2v14.8c0,.7-.6,1.2-1.2,1.2h-1.9c-.7,0-1.2-.6-1.2-1.2v-14.8c0-.7.6-1.2,1.2-1.2Z"/>
    <path class="st1" d="M135.7,16c0-1.3,1.1-2.4,2.7-2.4s2.7,1,2.7,2.3-1.1,2.4-2.7,2.4-2.7-1-2.7-2.4ZM137.6,19.8h1.6c.8,0,1.4.6,1.4,1.4v9.8c0,.8-.6,1.4-1.4,1.4h-1.6c-.8,0-1.4-.6-1.4-1.4v-9.8c0-.8.6-1.4,1.4-1.4Z"/>
    <path class="st1" d="M157,25.2v6.1c0,.6-.5,1.1-1.1,1.1h-2.2c-.6,0-1.1-.5-1.1-1.1v-5.4c0-1.8-.8-2.6-2.1-2.6s-2.5.9-2.5,3v5c0,.6-.5,1.1-1.1,1.1h-2.2c-.6,0-1.1-.5-1.1-1.1v-10.4c0-.6.5-1.1,1.1-1.1h2.6c.2,0,.4.2.4.4h0c0,.4.4.6.7.3.9-.7,2.1-1,3.3-1,3,0,5.2,1.7,5.2,5.6Z"/>
    <path class="st1" d="M173,19.8c.2,0,.4.2.4.4v9.9c0,4.8-2.7,7-7.4,7s-4.4-.5-5.9-1.4-.3-.4-.1-.6l1.2-2.3c.1-.2.4-.3.6-.2,1.1.7,2.6,1.1,3.9,1.1,2.4,0,3.4-1.1,3.4-3.1v-.4c-.9,1-2.1,1.5-3.7,1.5-3.4,0-6.2-2.4-6.2-6.1s2.8-6.1,6.2-6.1,2.4.3,3.2,1,.7,0,.7-.3h0c0-.2.2-.4.4-.4h3.3ZM169.1,25.6c0-1.5-1.2-2.6-2.7-2.6s-2.8,1-2.8,2.6,1.2,2.6,2.8,2.6,2.7-1,2.7-2.6Z"/>
    <path class="st1" d="M175.5,26.1c0-3.8,3-6.5,7.1-6.5s7.1,2.7,7.1,6.5-3,6.5-7.1,6.5-7.1-2.7-7.1-6.5ZM185.3,26.1c0-1.9-1.1-3-2.7-3s-2.7,1.1-2.7,3,1.2,3,2.7,3,2.7-1.1,2.7-3Z"/>
  </g>
</svg>